# xmcd
#
# Track frame offsets:
#	150
#	22005
#	33518
#	50262
#	64565
#	83096
#	101731
#	115426
#	132360
#	146424
#	167620
#	188435
#	203075
#	218963
#	232746
#	249141
#	266862
#	279342
#
# Disc length: 3991 seconds
#
# Revision: 2
# Processed by: cddbd v1.5.2PL0 Copyright (c) Steve Scherf et al.
# Submitted via: audiograbber 1.83.01
#
DISCID=f50f9512
DTITLE=George McAnthony - The Best of 1997-2005
DYEAR=2005
DGENRE=Country
TTITLE0=Great Spirit
TTITLE1=Mississippi river dance
TTITLE2=Easy going man
TTITLE3=Thank you folks
TTITLE4=Everything in you
TTITLE5=Memphis city of kings
TTITLE6=Weekend cowboy
TTITLE7=Out of the flood
TTITLE8=Cross the human bridges
TTITLE9=the star from denver
TTITLE10=Wild horse running
TTITLE11=Moccasin walk
TTITLE12=Rainbow
TTITLE13=Country roads
TTITLE14=I can fly
TTITLE15=Mmm Mmm Mmm Mmm (Crash Test Dummies - Bonus Track)
TTITLE16=Trapper jacket joe
TTITLE17=The vision
EXTD=
EXTT0=
EXTT1=
EXTT2=
EXTT3=
EXTT4=
EXTT5=
EXTT6=
EXTT7=
EXTT8=
EXTT9=
EXTT10=
EXTT11=
EXTT12=
EXTT13=
EXTT14=
EXTT15=
EXTT16=
EXTT17=
PLAYORDER=
